<svg xmlns="http://www.w3.org/2000/svg" width="329.641" height="332.475" xmlns:xlink="http://www.w3.org/1999/xlink"><defs><path id="a" d="M0 0h329.64v332.48H0z"/></defs><clipPath id="b"><use xlink:href="#a" overflow="visible"/></clipPath><path d="M320.06 152.7c-1.4 5.32-2.65 10.7-4.3 15.96-1.03 3.3-7.44 5.15-10.4 3.23-.46-.3-.9-1.1-.85-1.63.34-4.27.64-8.55 1.26-12.78.28-2 1.76-3.4 3.84-3.78 3.22-.6 6.47-1.12 9.7-1.67.26.2.5.42.76.64" clip-path="url(#b)"/><defs><path id="c" d="M0 0h329.64v332.48H0z"/></defs><clipPath id="d"><use xlink:href="#c" overflow="visible"/></clipPath><path d="M271.46 75.44c1.45 1.7 2.9 3.38 4.34 5.07-1.9 2-3.55 4.36-5.8 5.8-1.13.7-3.67.2-5-.63-4.46-2.8-8.66-6.03-13.36-9.38 3.67-2.87 6.87-5.38 10.87-6.17 1.4-.28 3.28.74 4.66 1.6 1.6 1 2.88 2.45 4.3 3.7" clip-path="url(#d)"/><defs><path id="e" d="M0 0h329.64v332.48H0z"/></defs><clipPath id="f"><use xlink:href="#e" overflow="visible"/></clipPath><path d="M60.16 254.62l.12.17c.93 1.42 1.85 2.84 3.07 4.7-1.52 1.52-3.05 3.33-4.85 4.8-2.15 1.72-4.47.9-6.42-.47-4.25-3-8.38-6.14-13.26-9.75 3.9-2.07 7.07-4.14 10.54-5.4 1.4-.52 3.66.36 5.15 1.26 2.08 1.24 3.8 3.1 5.66 4.68" clip-path="url(#f)"/><defs><path id="g" d="M0 0h329.64v332.48H0z"/></defs><clipPath id="h"><use xlink:href="#g" overflow="visible"/></clipPath><path d="M44.28 232.78c.67 1.25 1.34 2.5 2 3.75.55 1.2 1.1 2.37 1.62 3.53-.1.2-.1.38-.22.48-5.8 5.57-7.83 5.62-13.64.2-1.45-1.34-2.8-2.78-4.13-4.25-1.48-1.66-2.88-3.4-4.76-5.62 3.88-1.3 7.36-2.8 11-3.52 1.38-.27 3.25 1.1 4.67 2.06 1.33.9 2.34 2.22 3.48 3.36" clip-path="url(#h)"/><defs><path id="i" d="M0 0h329.64v332.48H0z"/></defs><clipPath id="j"><use xlink:href="#i" overflow="visible"/></clipPath><path d="M34.3 211.88c.15.73.3 1.46.46 2.2.06.14.15.3.17.46.25 2 2.62 4.06-.84 5.8-4.74 2.38-6.57 2.64-9.2-.66-3.4-4.24-6.4-8.77-9.58-13.18.13-.35.25-.7.38-1.06 3.83-.53 7.66-1.37 11.5-1.44 1.3-.02 2.78 1.8 3.86 3.04 1.26 1.46 2.17 3.22 3.24 4.84" clip-path="url(#j)"/><defs><path id="k" d="M0 0h329.64v332.48H0z"/></defs><clipPath id="l"><use xlink:href="#k" overflow="visible"/></clipPath><path d="M267.87 256.43c1.13-1.24 2.26-2.5 3.4-3.73.1-.12.2-.26.32-.37 6.7-5.28 7.46-5.3 14.72-.57 1.1.72 2.18 1.46 3.9 2.63-5.05 3.57-9.74 7-14.53 10.24-1.68 1.13-3.57.8-5.06-.55-1.64-1.47-3.14-3.1-4.63-4.6.78-1.26 1.32-2.17 1.87-3.07" clip-path="url(#l)"/><defs><path id="m" d="M0 0h329.64v332.48H0z"/></defs><clipPath id="n"><use xlink:href="#m" overflow="visible"/></clipPath><path d="M207.6 295.25c.94-.26 1.9-.53 2.83-.8.4-.07.82-.1 1.22-.2 7.6-2 9.8-1.05 13.52 5.9.73 1.35 1.3 2.8 2.1 4.58-4.8.6-9.2 1.27-13.6 1.73-6.53.67-8.02-.46-9.37-6.8-.17-.8-.22-1.63-.34-2.52 1.25-.65 2.44-1.27 3.64-1.9" clip-path="url(#n)"/><defs><path id="o" d="M0 0h329.64v332.48H0z"/></defs><clipPath id="p"><use xlink:href="#o" overflow="visible"/></clipPath><path d="M282.75 236.8c.76-1.16 1.53-2.33 2.3-3.5 1.3-1.46 2.6-2.92 3.96-4.35 1.56-1.63 3.43-2.26 5.62-1.48 3.07 1.1 6.12 2.23 10.03 3.65-4.62 4.58-8.6 8.7-12.78 12.6-2 1.9-4.23 1.26-6.35-.12-3.86-2.5-3.96-2.7-2.77-6.8" clip-path="url(#p)"/><defs><path id="q" d="M0 0h329.64v332.48H0z"/></defs><clipPath id="r"><use xlink:href="#q" overflow="visible"/></clipPath><path d="M10.24 179.35c4.13 0 7.93-.33 11.62.17 1.34.2 2.96 2.16 3.5 3.65 1.4 3.93 2.3 8.05 3.52 12.63-2.76.66-5.18 1.6-7.6 1.68-1.26.03-2.9-1.26-3.75-2.4-3.46-4.6-5.5-9.9-7.3-15.73" clip-path="url(#r)"/><defs><path id="s" d="M0 0h329.64v332.48H0z"/></defs><clipPath id="t"><use xlink:href="#s" overflow="visible"/></clipPath><path d="M54.36 79.46c.7-.78 1.4-1.56 2.12-2.34 1.9-1.84 3.73-3.73 5.7-5.5 2.2-2.02 4.7-2.25 7.3-.66 2.57 1.58 5.14 3.2 8.4 5.2-5 3.5-9.38 6.85-14.05 9.74-3.23 2-5.22 1.2-8.27-2.42-.94-1.13-2.48-2.18-1.2-4.02" clip-path="url(#t)"/><defs><path id="u" d="M0 0h329.64v332.48H0z"/></defs><clipPath id="v"><use xlink:href="#u" overflow="visible"/></clipPath><path d="M64.88 257.5c-1.1-1.27-2.18-2.55-3.28-3.84-1.43-2.5-2.9-4.97-4.3-7.48-1.02-1.83-.93-3.65.43-5.3 2.1-2.5 4.23-5 6.95-8.2 2.7 5.86 5.2 11 7.42 16.25.85 2.03.3 4.13-1.76 5.43-1.77 1.12-3.63 2.1-5.46 3.15" clip-path="url(#v)"/><defs><path id="w" d="M0 0h329.64v332.48H0z"/></defs><clipPath id="x"><use xlink:href="#w" overflow="visible"/></clipPath><path d="M268.6 252.77c-1.47 1.6-2.96 3.17-4.44 4.75-.08 0-.17 0-.24-.03-9.2-4.46-7.97-6.02-4.94-12.8 1.7-3.82 3.67-7.5 5.86-11.95 2.72 3.4 5.14 6.16 7.28 9.13 1.48 2.05.4 4.1-.67 6.02-.93 1.64-1.9 3.25-2.84 4.87" clip-path="url(#x)"/><defs><path id="y" d="M0 0h329.64v332.48H0z"/></defs><clipPath id="z"><use xlink:href="#y" overflow="visible"/></clipPath><path d="M118.82 294.4c.36.05.7.1 1.06.14 1.75.85 3.5 1.7 5.3 2.55.03.07.12.23.1.38-1.37 8.8-2.52 9.7-11.3 8.8-3.86-.4-7.7-1-11.97-1.57 1.9-4.28 3.82-8.22 7.5-10.74 1.26-.87 3.46-.54 5.22-.46 1.38.06 2.74.58 4.1.9" clip-path="url(#z)"/><defs><path id="A" d="M0 0h329.64v332.48H0z"/></defs><clipPath id="B"><use xlink:href="#A" overflow="visible"/></clipPath><path d="M249.3 273.37c1.88-1.26 3.73-2.58 5.66-3.78 6.77-4.18 7.1-3.8 12.78.78 1.46 1.18 2.63 2.72 4.2 4.36-2.12 1.15-4.14 2.36-6.25 3.37-2.92 1.4-5.85 2.76-8.84 3.9-3.2 1.24-4.35.8-6.4-1.86-.36-.45-.72-.9-1.02-1.4-1.06-1.8-2.4-3.6-.07-5.46 0 0-.08.1-.08.1" clip-path="url(#B)"/><defs><path id="C" d="M0 0h329.64v332.48H0z"/></defs><clipPath id="D"><use xlink:href="#C" overflow="visible"/></clipPath><path d="M276.14 77.9c-.8-.97-1.57-1.92-2.36-2.87-1.25-2.2-2.52-4.42-3.77-6.64-1.34-2.4-1.02-4.6.75-6.64 1.95-2.24 3.93-4.45 6.14-6.95 3.2 5.36 6.16 10.43 7.8 16.17.63 2.23-.04 3.9-1.86 5.17-1.08.75-2.24 1.4-3.3 2.18-1.3.97-2.4.73-3.4-.43" clip-path="url(#D)"/><defs><path id="E" d="M0 0h329.64v332.48H0z"/></defs><clipPath id="F"><use xlink:href="#E" overflow="visible"/></clipPath><path d="M22.73 99.35c3.25 2.2 6.25 4.04 9.06 6.15 1.68 1.26 2.44 3.15 1.87 5.3-1.06 4.05-2.2 8.07-3.37 12.3-2.16-.36-3.9-.45-5.53-.96-2.37-.75-4.04-2.37-4.2-5-.4-5.83.68-11.5 2.16-17.8" clip-path="url(#F)"/><defs><path id="G" d="M0 0h329.64v332.48H0z"/></defs><clipPath id="H"><use xlink:href="#G" overflow="visible"/></clipPath><path d="M10 152.06c3.23.53 6.47 1 9.68 1.6 2.63.5 3.98 2.46 4.25 4.9.43 3.84.58 7.72.64 11.6 0 .64-.96 1.7-1.65 1.87-4.67 1.22-7.64.08-9.38-4.4-1.86-4.8-2.96-9.87-4.4-14.83.3-.24.58-.5.87-.74" clip-path="url(#H)"/><defs><path id="I" d="M0 0h329.64v332.48H0z"/></defs><clipPath id="J"><use xlink:href="#I" overflow="visible"/></clipPath><path d="M78.68 272.3c.92 1.03 1.86 2.05 2.82 3.1 0 .1.03.28-.04.4-4.2 7.8-5.37 8.2-13.28 4.48-3.58-1.68-7.08-3.5-11.38-5.65 3.5-2.78 6.4-5.38 9.6-7.55 1.96-1.33 4 0 5.77 1.05 2.25 1.34 4.4 2.84 6.6 4.28l-.1-.08z" clip-path="url(#J)"/><defs><path id="K" d="M0 0h329.64v332.48H0z"/></defs><clipPath id="L"><use xlink:href="#K" overflow="visible"/></clipPath><path d="M288.6 97.83c-.66-1.3-1.32-2.6-1.97-3.9-.76-3-1.95-5.95-2.13-8.97-.12-1.9 6.12-7.05 9.83-8.88 1.53 5.74 3.15 11.33 4.42 17 .24 1.1-.63 2.67-1.4 3.7-.72.92-2 1.42-3.05 2.06-2.18 1.32-4.2 1.57-5.7-1" clip-path="url(#L)"/><defs><path id="M" d="M0 0h329.64v332.48H0z"/></defs><clipPath id="N"><use xlink:href="#M" overflow="visible"/></clipPath><path d="M56.23 74.36c-.4.45-.82.9-1.23 1.34-.32.26-.6.56-.95.76-1.3.75-1.42 3.5-4 2.1C45.8 76.2 44 74 44.7 71.15c1.44-5.84 4.64-10.86 7.9-16.5 2.5 3.13 4.83 5.9 7 8.78 1.54 2.08.48 4.1-.6 6-.9 1.65-1.83 3.28-2.75 4.92" clip-path="url(#N)"/><defs><path id="O" d="M0 0h329.64v332.48H0z"/></defs><clipPath id="P"><use xlink:href="#O" overflow="visible"/></clipPath><path d="M228.94 286.32c.96-.44 1.92-.87 2.87-1.3 2.37-.97 4.68-2.16 7.13-2.8 1.26-.32 3.2-.1 4.12.68 2.84 2.43 5.34 5.25 7.97 7.92-.1.37-.18.73-.27 1.1-5.36 1.45-10.66 3.17-16.1 4.28-3.62.74-4.6-.1-6.2-3.44-.68-1.47-1.1-3.06-1.64-4.54.83-.73 1.5-1.32 2.14-1.9" clip-path="url(#P)"/><defs><path id="Q" d="M0 0h329.64v332.48H0z"/></defs><clipPath id="R"><use xlink:href="#Q" overflow="visible"/></clipPath><path d="M97.02 284.48c.53.27 1.05.55 1.57.83 1.24.9 2.5 1.77 4.1 2.9-.92 2.03-1.63 4.37-2.98 6.23-.75 1.04-2.7 2.03-3.9 1.8-5.77-1.14-11.47-2.7-17.74-4.22 2.82-4.48 5.52-7.97 9.58-9.77 1.42-.62 3.62.42 5.43.86 1.33.32 2.6.9 3.92 1.38" clip-path="url(#R)"/><defs><path id="S" d="M0 0h329.64v332.48H0z"/></defs><clipPath id="T"><use xlink:href="#S" overflow="visible"/></clipPath><path d="M41.6 95.65c-.36.85-.72 1.7-1.08 2.54-1.2 2.02-2.7 1.9-4.68 1.03-3.9-1.76-5.8-3.48-5.2-6.3 1.18-5.6 2.84-11.1 4.45-17.18 4.2 2.78 7.46 5.35 9.57 9.05.5.9.34 2.5-.03 3.58-.85 2.48-2 4.85-3.04 7.27" clip-path="url(#T)"/><defs><path id="U" d="M0 0h329.64v332.48H0z"/></defs><clipPath id="V"><use xlink:href="#U" overflow="visible"/></clipPath><path d="M41.5 100.3c1.63-2.43 3.2-4.93 4.93-7.3 3.8-5.14 5.2-5.52 11.1-3.22 1.97.76 3.9 1.62 6.7 2.78-4.63 4.5-8.75 8.63-13 12.6-1.5 1.4-3.5 1.34-5.06.14-1.82-1.4-4.82-1.83-4.6-5.08l-.08.1z" clip-path="url(#V)"/><defs><path id="W" d="M0 0h329.64v332.48H0z"/></defs><clipPath id="X"><use xlink:href="#W" overflow="visible"/></clipPath><path d="M83.61 85.17h22.66v23.9c6.24-1.8 8.1-6.13 8.95-11.28h22.65c.4 9.1-5.03 14.36-12.15 19.55 7.7 4.17 12.08 10.25 11.88 19.25h-22.24c-.83-5.32-2.7-9.75-8.94-11.7v11.66H83.6v-51.4z" clip-path="url(#X)"/><defs><path id="Y" d="M0 0h329.64v332.48H0z"/></defs><clipPath id="Z"><use xlink:href="#Y" overflow="visible"/></clipPath><path d="M165.54 133.4c2.07-4.32 3.98-8.3 5.6-11.66 4.26 1.93 7.98 3.85 11.9 5.23 1.03.37 3.7-.04 4-1.46.32-1.43-1.86-2.6-3.1-3.04-3.44-1.2-7.17-1.6-10.55-2.92-4.66-1.83-6.94-5.57-6.74-10.65.2-5.07 3.3-8.1 7.66-9.63 10.38-3.66 20.62-2.58 31.23 1.66-1.78 3.63-3.42 6.97-5.07 10.34-2.97-1.3-5.48-2.82-8.2-3.4-1.44-.32-4.52-.15-4.86 1.55-.33 1.62 2.26 2.7 3.7 3.24 3.9 1.5 8.34 1.9 11.86 3.95 7.68 4.48 7.24 14.68-.62 18.9-2.44 1.32-5.38 2-8.17 2.35-9.8 1.2-19.25-.12-28.66-4.46" clip-path="url(#Z)"/><defs><path id="aa" d="M0 0h329.64v332.48H0z"/></defs><clipPath id="ab"><use xlink:href="#aa" overflow="visible"/></clipPath><path d="M248.35 100.86c-1.92 3.9-3.52 7.16-5.18 10.52-2.76-1.23-5.16-2.5-7.7-3.37-2.12-.73-4.72-1-5.18 1.93-.14.77 2.35 2.35 3.88 2.92 3.67 1.37 7.67 1.93 11.16 3.6 3.93 1.87 6.14 5.35 5.76 10-.4 4.84-3 8.26-7.42 9.93-7.93 3-16.13 2.4-24.23.82-3.7-.72-7.23-2.13-11.34-3.37 2.22-4.6 4.14-8.6 5.8-12.04 4 1.87 7.58 3.8 11.35 5.15 1.2.42 4.13.32 4.47-1.2.37-1.64-2.3-2.7-3.76-3.26-3.4-1.3-7.12-1.78-10.46-3.17-4.34-1.8-6.24-5.54-6.14-10.2.1-4.48 2.65-7.4 6.46-9.2 7.65-3.56 15.67-3.18 23.68-1.65 2.78.53 5.46 1.57 8.85 2.58" clip-path="url(#ab)"/><defs><path id="ac" d="M0 0h329.64v332.48H0z"/></defs><clipPath id="ad"><use xlink:href="#ac" overflow="visible"/></clipPath><path d="M141.03 136.6v-38c7.56 2.88 14.88 2.95 22.58.06v37.94h-22.57z" clip-path="url(#ad)"/><defs><path id="ae" d="M0 0h329.64v332.48H0z"/></defs><clipPath id="af"><use xlink:href="#ae" overflow="visible"/></clipPath><path d="M157.34 84.93c3.96 0 6.85 2.73 6.88 6.5.04 3.72-2.88 6.62-6.73 6.7-3.98.1-7.25-3-7.18-6.76.07-3.64 3.13-6.45 7.02-6.44" clip-path="url(#af)"/><defs><path id="ag" d="M0 0h329.64v332.48H0z"/></defs><clipPath id="ah"><use xlink:href="#ag" overflow="visible"/></clipPath><path d="M83.61 145.48h22.66v23.9c6.24-1.8 8.1-6.13 8.95-11.28h22.65c.4 9.1-5.03 14.37-12.15 19.56 7.7 4.17 12.08 10.26 11.88 19.25h-22.24c-.83-5.3-2.7-9.74-8.94-11.7v11.68H83.6v-51.4z" clip-path="url(#ah)"/><defs><path id="ai" d="M0 0h329.64v332.48H0z"/></defs><clipPath id="aj"><use xlink:href="#ai" overflow="visible"/></clipPath><path d="M165.54 193.7c2.07-4.3 3.98-8.3 5.6-11.64 4.26 1.93 7.98 3.84 11.9 5.22 1.03.37 3.7-.03 4-1.45.32-1.44-1.86-2.62-3.1-3.05-3.44-1.2-7.17-1.6-10.55-2.93-4.66-1.83-6.94-5.57-6.74-10.65.2-5.06 3.3-8.08 7.66-9.62 10.38-3.66 20.62-2.58 31.23 1.66-1.78 3.64-3.42 6.97-5.07 10.34-2.97-1.3-5.48-2.8-8.2-3.4-1.44-.32-4.52-.14-4.86 1.56-.33 1.6 2.26 2.68 3.7 3.24 3.9 1.5 8.34 1.9 11.86 3.94 7.68 4.47 7.24 14.67-.62 18.9-2.44 1.32-5.38 2-8.17 2.34-9.8 1.2-19.25-.12-28.66-4.46" clip-path="url(#aj)"/><defs><path id="ak" d="M0 0h329.64v332.48H0z"/></defs><clipPath id="al"><use xlink:href="#ak" overflow="visible"/></clipPath><path d="M248.35 161.17c-1.92 3.9-3.52 7.16-5.18 10.53-2.76-1.24-5.16-2.5-7.7-3.38-2.12-.74-4.72-1-5.18 1.93-.14.77 2.35 2.35 3.88 2.92 3.67 1.36 7.67 1.92 11.16 3.6 3.93 1.86 6.14 5.34 5.76 10-.4 4.84-3 8.25-7.42 9.92-7.93 3-16.13 2.4-24.23.8-3.7-.7-7.23-2.1-11.34-3.36 2.22-4.6 4.14-8.6 5.8-12.03 4 1.9 7.58 3.83 11.35 5.16 1.2.42 4.13.33 4.47-1.2.37-1.63-2.3-2.7-3.76-3.26-3.4-1.3-7.12-1.76-10.46-3.16-4.34-1.8-6.24-5.54-6.14-10.2.1-4.47 2.65-7.4 6.46-9.2 7.65-3.55 15.67-3.18 23.68-1.64 2.78.53 5.46 1.56 8.85 2.57" clip-path="url(#al)"/><defs><path id="am" d="M0 0h329.64v332.48H0z"/></defs><clipPath id="an"><use xlink:href="#am" overflow="visible"/></clipPath><path d="M141.03 196.9v-38c7.56 2.9 14.88 2.96 22.58.08v37.93h-22.57z" clip-path="url(#an)"/><defs><path id="ao" d="M0 0h329.64v332.48H0z"/></defs><clipPath id="ap"><use xlink:href="#ao" overflow="visible"/></clipPath><path d="M157.34 145.24c3.96 0 6.85 2.73 6.88 6.5.04 3.72-2.88 6.62-6.73 6.7-3.98.1-7.25-3-7.18-6.76.07-3.64 3.13-6.45 7.02-6.44" clip-path="url(#ap)"/><defs><path id="aq" d="M0 0h329.64v332.48H0z"/></defs><clipPath id="ar"><use xlink:href="#aq" overflow="visible"/></clipPath><path d="M249.37 273.28s-.02.02-.03.03c-.02.02-.03.05-.05.07l.07-.1z" clip-path="url(#ar)"/><defs><path id="as" d="M0 0h329.64v332.48H0z"/></defs><clipPath id="at"><use xlink:href="#as" overflow="visible"/></clipPath><path d="M299.13 206.2c-1.4 1.3-2.25 3.16-3.6 5.16 2.03-7.07 3.94-13.7 6.02-20.95-.24 2.17-.4 3.7-.6 5.5 2.2.57 4.27 1.42 6.35 1.5 1.44.05 3.54-.54 4.3-1.6 3.47-4.9 5.38-10.6 7.54-16.8-3.52 0-6.57 0-9.6 0-3.1-.02-4.96 1.6-5.9 4.4-.64 1.94-1.2 3.92-1.8 5.86.73-7.3 1.84-14.58 2.1-21.88.25-7.4-.35-14.83-.56-21.83.8.4 1.93 1.45 3.04 1.43 6.66-.07 7.58-.7 8.55-6.94.1-.74.26-1.48.26-2.22.03-4 0-7.98 0-12-10.84 2.27-11.7 3.16-12.88 13.45-1.24-5.53-2.5-11.05-3.63-16.1 1.82-.36 3.7-.6 5.5-1.1 3.95-1.08 5-2.24 4.7-6.35-.37-5.25-1.2-10.48-1.85-15.94-4.23 1.54-8.1 3.28-10.24 6.8-1.26 2.04-.97 5.04-1.27 6.96-2.1-4.74-4.54-10.23-6.97-15.72-.66-1.3-1.32-2.6-1.97-3.9-2.18-3.32-4.37-6.63-6.54-9.95-1.34-2.02-2.64-4.05-3.96-6.08-.78-.97-1.56-1.92-2.35-2.87-3.32-3.53-6.63-7.06-9.94-10.6l-1.23.87c1.07 1 2.13 2 3.1 3.07 2.04 2.24 3.84 4.7 5.74 7.07 1.44 1.7 2.9 3.38 4.33 5.07 2.9 4.32 5.8 8.63 8.7 12.94-.22.13-.42.27-.63.4-1.04-1.16-1.9-2.58-3.17-3.44-1.34-.9-3.2-2.07-4.56-1.8-3.5.73-6.83 2.2-10.23 3.36-.06.3-.13.6-.2.9 3.9 4 7.77 8.06 11.75 11.98 1.76 1.75 3.9 1.64 5.92.34 1.76-1.12 3.4-2.4 5.37-3.8 2.17 5.3 4.3 10.48 6.42 15.66-1.6-1.8-2.72-3.87-4.24-5.6-.97-1.1-2.57-2.4-3.83-2.35-3.53.15-7.03.97-11.2 1.64 3.4 5.1 6.2 9.6 9.28 13.88 2.06 2.88 3.64 3.17 6.88 1.84 1.72-.7 3.36-1.58 5.33-2.5 1.18 5.17 2.3 10.04 3.4 14.92-1-1.1-1.48-2.32-1.93-3.55-1.06-3-3.14-4.58-6.34-4.6-2.94-.02-5.88 0-8.8 0-.18.3-.35.64-.52.96 2.23 4.86 4.36 9.76 6.7 14.57 1.2 2.46 3.6 3.67 6.5 2.87 1.87-.52 4.48-1 6.48-1.62v21.26c-2-3.18-.6-6.38-1.07-9.53-.3-2.12-1.1-4.5-3.5-5.13-3.5-.94-7.24-1.44-11.5-2.27 1.43 5.87 2.44 10.98 3.96 15.93.5 1.6 1.98 3.67 3.4 4.04 2.57.65 5.4.18 8.28.18-.46 3.8-.95 7.9-1.47 11.98-.14 1.05-.42 2.07-.62 3.1-.23-3.57.02-7.2-3.42-9.65-2.98-2.14-6.35-2.9-10.65-3.65.63 6.05 1.08 11.7 1.85 17.3.34 2.48 2.14 3.87 4.74 3.92 1.85.03 3.7 0 6.05 0-1.8 5.6-3.5 10.94-5.2 16.3-.1-1.84.58-3.5.65-5.2.06-1.55-.03-3.52-.9-4.64-2.57-3.3-6.16-5.3-10.75-6.92-.53 6.06-1.13 11.72-1.48 17.4-.15 2.5 1.27 4.18 3.83 4.74 1.85.4 3.7.85 5.9 1.36-2.62 5.12-5.2 10.16-7.8 15.2-.18-.1-.37-.2-.55-.28.6-1.33 1.45-2.6 1.77-4 .4-1.87 1.23-4.28.47-5.66-2.04-3.67-5.4-6.3-9.3-8.66-1.1 3.2-2.15 6.04-3.03 8.95-.7 2.28-1.32 4.62-1.7 6.97-.53 3.23.4 4.9 3.38 6.4 1.6.8 3.3 1.36 5.45 2.24-3.78 4.65-7.42 9.1-11.06 13.57-1.47 1.6-2.95 3.17-4.43 4.75-3.85 3.87-7.7 7.74-11.54 11.6-.16-.16-.32-.33-.48-.5 1.23-1.5 2.7-2.9 3.62-4.57.7-1.26 1.4-3.17.95-4.32-1.4-3.55-3.38-6.86-5.5-10.97-3.68 5.1-6.96 9.37-9.92 13.85-1.95 2.98-1.63 4.5.64 7.15 1.23 1.43 2.53 2.78 3.96 4.35-4.58 2.9-9.33 5.94-14.1 8.98-.1-.2-.24-.37-.36-.56 1.55-1.18 3.1-2.35 4.64-3.55 1.83-1.44 2.97-3.3 2.26-5.62-1-3.35-2.28-6.6-3.73-10.7-4.5 4.5-8.48 8.32-12.3 12.3-1.9 2-1.85 4.34-.25 6.57 1.13 1.57 2.34 3.07 3.67 4.82-5.95 2.42-11.74 4.78-17.54 7.14 2.08-1.64 4.38-2.76 6.6-4.02 1.98-1.13 3.48-2.76 3.16-5.2-.43-3.42-1.1-6.8-1.7-10.2-.28-.17-.56-.34-.85-.5-4.64 3.4-9.3 6.77-13.87 10.27-1.95 1.5-2.23 3.6-1.17 5.8.83 1.74 1.78 3.4 2.87 5.47-6.13 1.33-12.14 2.63-18.15 3.93 2.26-1.22 4.75-1.7 6.92-2.78 1.48-.74 3.4-2.25 3.58-3.62.5-3.68.16-7.48.16-11.46-5.7 1.57-10.75 3.75-15.33 6.94-2.78 1.96-3.28 3.45-2.36 6.84.42 1.54.95 3.05 1.46 4.66-10 1-19.78 1.03-29.64-.03.65-1.98 1.26-3.7 1.76-5.42.6-2 .2-3.84-1.5-5.15-4.88-3.82-10.47-6.17-16.8-7.98 0 3.58-.02 6.88 0 10.17 0 2.66 1.45 4.3 3.9 5.1 2.36.78 4.73 1.5 7.1 2.24-.06.17-.1.35-.14.52-5.9-1.3-11.82-2.6-17.88-3.95 1.06-2.1 1.97-3.76 2.73-5.48.76-1.76.95-3.54-.54-5.1-4.28-4.44-9.4-7.7-15.34-10.77-.6 3.33-1.08 6.32-1.74 9.27-.57 2.57.5 4.38 2.47 5.74 2 1.38 4.15 2.6 6.24 3.88-.06.13-.1.27-.17.4-5.4-2.23-10.82-4.48-16.26-6.74 1.47-2.03 2.76-3.74 3.95-5.52 1.18-1.75 1.4-3.68-.1-5.27-4.02-4.2-8.15-8.28-12.72-12.9-1.45 3.72-2.58 6.55-3.66 9.4-1.1 2.86-.17 5.16 2.08 7.05 1.2 1 2.43 2.02 3.65 3.03-.1.15-.23.3-.34.46-4.45-2.87-8.9-5.74-12.76-8.23 1.53-1.83 3.2-3.34 4.2-5.2.74-1.36 1.33-3.47.8-4.75-2.35-5.6-6.47-10.03-10.68-14.83-1.72 2.87-3.26 5.4-4.77 7.94-1.6 2.7-1.23 5.23.8 7.53 1.53 1.73 3.13 3.4 4.7 5.1-.16.17-.32.33-.48.48-4.5-4.35-9-8.7-13.48-13.07-1.1-1.27-2.2-2.55-3.3-3.84-3.98-4.73-7.98-9.47-12.1-14.35 1.85-.68 3.04-1.03 4.15-1.55 4.12-1.93 5.45-3.66 4.62-7.4-1.15-5.2-2.8-10.27-4.45-16.1-2.94 2.4-5.3 4.3-7.62 6.24-2.14 1.78-2.8 4.03-1.82 6.67.9 2.4 1.88 4.76 2.82 7.15-.14.06-.3.13-.43.2-2.83-5.46-5.66-10.9-8.57-16.52 1.9-.3 3.3-.46 4.68-.78 3.18-.75 5.38-2.83 5.25-6.02-.2-5.46-.96-10.9-1.57-17.04-3.62 2.1-6.5 3.7-9.3 5.4-1.73 1-2.54 2.6-2.35 4.6.23 2.25.58 4.5.87 6.74-.14.05-.28.1-.4.13-1.68-5.38-3.36-10.77-5.12-16.43 5.63 1.86 10.62-.18 11.4-5 .85-5.15.72-10.44 1.05-16.33-3.76 1.38-6.7 2.43-9.62 3.53-2.46.93-3.6 2.78-3.6 5.37-.02 2.2 0 4.4 0 6.62-.18 0-.34 0-.5.03-.76-5.75-1.5-11.5-2.3-17.5 6.38 2.34 10.1 1.02 12.2-4.7 1.66-4.52 2.48-9.34 3.83-14.67-3.8.6-6.7 1.1-9.6 1.53-2.9.42-4.83 2.07-5.27 4.93-.3 1.95 1.05 3.9-.95 5.87v4.42s-.36 0-.54 0c.2-1.48.54-2.95.54-4.42v-16.95c2 .7 3.6 1.28 5.05 1.6 2.1.47 4.35.86 5.96-1.26 3.73-4.92 6.16-10.44 8-16.85-3.57 0-6.77-.06-9.98.03-2.6.06-4.36 1.46-5.2 3.88-.95 2.68-1.74 5.42-2.6 8.13-.13-.04-.26-.06-.4-.1 1.36-6.33 2.73-12.66 4.08-18.94 2.35 1.1 4.3 2.33 6.4 2.86 1.3.32 3.3.04 4.27-.8 4.64-4.08 7.65-9.4 10.68-15.1-3.16-.6-6-1.12-8.82-1.7-2.58-.53-4.6.37-6.07 2.42-1.43 2-2.7 4.1-4.06 6.16-.2-.1-.4-.18-.6-.28 2.66-5.73 5.32-11.47 7.97-17.2l-.08.1c3.34-7.54 7.76-14.4 12.87-20.86.7-.78 1.4-1.56 2.12-2.34 3.16-3.84 6.36-7.7 9.58-11.6l-.8-.56c-3.02 3.13-6.04 6.26-9.05 9.4-.4.45-.82.9-1.23 1.34-.2.44-.33.93-.6 1.33-3.8 5.76-7.64 11.5-11.48 17.25-.35.52-.88.92-1.32 1.37-.36.85-.72 1.7-1.07 2.54-.26.68-.5 1.38-.76 2.06-2.46 6.04-5.23 11.97-7.3 18.14-2.18 6.54-3.7 13.3-5.6 20.38.2-3.84.3-7.6-3.22-9.56-3-1.67-6.38-2.65-10.04-4.12 0 2.02-.03 3.17 0 4.32.12 3.23.14 6.46.45 9.67.14 1.5.6 3.12 1.33 4.45 2.32 4.18 8.2 4.76 10.94 1.32-.26 3.68-.6 7.47-.77 11.27-.83 19.16 2.1 37.75 8.75 55.75.16.72.3 1.44.47 2.17.26.3.6.56.76.9 2.93 5.93 5.84 11.87 8.76 17.8.66 1.26 1.32 2.5 2 3.76 4.6 6.03 9.24 12.06 13.86 18.1l.12.16c4.92 4.7 9.84 9.43 14.77 14.15 1.23 1.17 2.48 2.3 3.72 3.46l-.1-.08c6.13 4.05 12.24 8.1 18.36 12.16.52.28 1.04.55 1.56.83 4.18 1.95 8.36 3.92 12.56 5.82 2.53 1.15 5.1 2.2 7.67 3.28.35.05.7.1 1.05.14 7.03 1.87 14.06 3.74 20.97 5.58-8.38.1-11.88 3.67-12.62 13.47 5.25-.4 10.44-.67 15.6-1.2 2.13-.2 4.42.9 5.04-1.64.7-2.8 1.52-4.16-.57-6.16h32.84c-2.7 2-1.57 7.82 2.52 9.02 5.7 1.67 11.6.55 18.26.4-1.56-3.7-2.63-7.5-4.37-10.5-2.14-3.72-6.17-3.1-9.68-3.16 6.62-1.64 13.18-3.37 19.74-5 .95-.27 1.9-.6 2.83-.86 6.17-2.7 12.35-5.44 18.52-8.15.95-.44 1.9-.9 2.86-1.33 5.86-3.9 11.7-7.8 17.54-11.7.23-.3.44-.6.72-.86 5.47-5.02 10.96-10.04 16.45-15.04.42-.38.92-.66 1.37-1 1.13-1.23 2.26-2.47 3.4-3.72 3.82-5.3 7.65-10.6 11.48-15.9.76-1.16 1.53-2.33 2.3-3.5 2.75-5.55 5.5-11.1 8.28-16.7 0 .8-.23 1.6.04 2.17 1.45 2.92 8 4.22 10.33 1.9 4.23-4.23 7.06-9.44 10.13-15.07-3.62-.65-6.84-1.55-10.1-1.66-1.53-.06-3.38 1.13-4.6 2.26" clip-path="url(#at)"/><defs><path id="au" d="M0 0h329.64v332.48H0z"/></defs><clipPath id="av"><use xlink:href="#au" overflow="visible"/></clipPath><path d="M112.64 23.22c1.25.17 2.4.6 3.43 1.32.85.6 1.6 1.3 2.24 2.12.64.83 1.12 1.83 1.46 3.02.4 1.44.44 2.96.1 4.55-.33 1.6-1.26 2.9-2.77 3.95 1.55.17 2.76.7 3.63 1.56.88.87 1.6 2.37 2.2 4.5l.58 2.02c.4 1.38.7 2.3.96 2.77.4.73.94 1.2 1.65 1.4l.23.75-6.98 1.96c-.38-.6-.67-1.12-.87-1.5-.4-.8-.73-1.65-1-2.54l-.83-2.8c-.57-1.92-1.26-3.1-2.08-3.57-.82-.47-2.1-.45-3.87.04l-6.18 1.74 3.33 11.87-6.18 1.74-8.5-30.25 14.48-4.07c2.08-.54 3.74-.72 5-.56m-11.82 8.15l2.28 8.13 6.82-1.9c1.35-.4 2.32-.84 2.9-1.36 1.04-.9 1.3-2.22.84-3.9-.52-1.85-1.44-2.92-2.78-3.22-.74-.17-1.77-.08-3.07.3l-6.97 1.95z" clip-path="url(#av)"/><defs><path id="aw" d="M0 0h329.64v332.48H0z"/></defs><clipPath id="ax"><use xlink:href="#aw" overflow="visible"/></clipPath><path d="M136.74 18.32l7.4-.7 14 30.25-7.08.67-2.67-6.24-11.53 1.1-1.52 6.62-6.84.64 8.24-32.34zm1.4 19.5l8-.75-5.1-11.94-2.9 12.7z" clip-path="url(#ax)"/><defs><path id="ay" d="M0 0h329.64v332.48H0z"/></defs><clipPath id="az"><use xlink:href="#ay" overflow="visible"/></clipPath><path d="M181.84 19c2.14.9 3.8 2.37 5 4.4.97 1.66 1.57 3.4 1.8 5.26.26 1.84.3 3.6.18 5.23-.35 4.16-1.5 7.6-3.4 10.36-2.6 3.7-6.26 5.36-11 4.96l-13.5-1.13 2.63-31.33 13.5 1.14c1.94.2 3.54.56 4.8 1.1m-12.4 3.75l-1.72 20.44 6.04.5c3.1.25 5.38-1.1 6.86-4.03.8-1.62 1.3-3.58 1.5-5.9.26-3.18-.03-5.67-.9-7.46-.84-1.78-2.76-2.8-5.74-3.05l-6.06-.5z" clip-path="url(#az)"/><defs><path id="aA" d="M265.7 353.43l-322.5-68.07L11.87-39.92l322.5 68.07z"/></defs><clipPath id="aB"><use xlink:href="#aA" overflow="visible"/></clipPath><path d="M193.94 21.07h6.52V52.5h-6.52z" transform="matrix(-.978 -.206 .206 -.978 382.556 113.491)" clip-path="url(#aB)"/><defs><path id="aC" d="M0 0h329.64v332.48H0z"/></defs><clipPath id="aD"><use xlink:href="#aC" overflow="visible"/></clipPath><path d="M226.02 59c-3.05 1.5-6.7 1.5-10.93.02-4.25-1.5-7.08-3.8-8.5-6.9-2-3.88-2.06-8.5-.18-13.8 1.92-5.44 4.86-8.98 8.82-10.64 3.06-1.5 6.7-1.52 10.94-.02 4.23 1.5 7.06 3.8 8.48 6.9 2.03 3.76 2.08 8.37.17 13.8-1.9 5.3-4.82 8.86-8.8 10.63m-2.3-5.88c2.1-1.3 3.73-3.62 4.9-6.96 1.18-3.32 1.36-6.14.57-8.47-.8-2.33-2.43-3.93-4.88-4.8-2.45-.86-4.73-.65-6.83.64-2.1 1.3-3.75 3.6-4.93 6.95-1.18 3.32-1.36 6.16-.54 8.48.82 2.33 2.46 3.92 4.9 4.8 2.46.86 4.73.64 6.8-.66" clip-path="url(#aD)"/><defs><path id="aE" d="M0 0h329.64v332.48H0z"/></defs><clipPath id="aF"><use xlink:href="#aE" overflow="visible"/></clipPath><path fill="#00AEEF" d="M90.76 204.04l13.64 21.93h.1v-21.93h6.72v32.7h-7.2l-13.58-21.9h-.1v21.9h-6.73l.02-32.7z" clip-path="url(#aF)"/><defs><path id="aG" d="M0 0h329.64v332.48H0z"/></defs><clipPath id="aH"><use xlink:href="#aG" overflow="visible"/></clipPath><path fill="#00AEEF" d="M133.83 204.04l12.22 32.7h-7.46l-2.48-7.3H123.9l-2.57 7.3h-7.23l12.36-32.7h7.37zm.4 20.05l-4.1-12h-.1l-4.25 12h8.46z" clip-path="url(#aH)"/><defs><path id="aI" d="M0 0h329.64v332.48H0z"/></defs><clipPath id="aJ"><use xlink:href="#aI" overflow="visible"/></clipPath><path fill="#00AEEF" d="M163.63 204.04c2.04 0 3.8.3 5.22.9 1.44.6 2.6 1.38 3.5 2.35.9.97 1.56 2.1 1.97 3.34.4 1.25.62 2.55.62 3.9 0 1.3-.2 2.6-.62 3.85-.4 1.26-1.07 2.38-1.97 3.36-.9.98-2.06 1.76-3.5 2.36-1.44.6-3.18.9-5.22.9h-7.55v11.7h-7.2v-32.67h14.75zm-1.97 15.4c.83 0 1.62-.07 2.38-.2.77-.12 1.44-.36 2.02-.7.58-.36 1.04-.85 1.4-1.5.34-.64.52-1.47.52-2.5 0-1.05-.18-1.9-.53-2.53-.35-.63-.8-1.13-1.4-1.48-.57-.35-1.24-.6-2-.7-.77-.13-1.56-.2-2.4-.2h-5.57v9.8h5.58z" clip-path="url(#aJ)"/><defs><path id="aK" d="M0 0h329.64v332.48H0z"/></defs><clipPath id="aL"><use xlink:href="#aK" overflow="visible"/></clipPath><path fill="#00AEEF" d="M179.1 213.72c.74-2.08 1.8-3.9 3.16-5.47 1.38-1.55 3.06-2.77 5.06-3.66s4.25-1.33 6.75-1.33c2.54 0 4.8.44 6.78 1.32 1.98.88 3.66 2.1 5.03 3.65 1.38 1.56 2.43 3.4 3.16 5.47.73 2.1 1.1 4.36 1.1 6.8 0 2.38-.37 4.6-1.1 6.66-.73 2.06-1.78 3.86-3.16 5.38-1.37 1.53-3.05 2.73-5.03 3.6-2 .87-4.24 1.3-6.78 1.3-2.5 0-4.75-.43-6.75-1.3-2-.87-3.68-2.07-5.06-3.6-1.37-1.52-2.42-3.32-3.16-5.38-.73-2.06-1.1-4.28-1.1-6.66 0-2.44.37-4.7 1.1-6.8m6.57 10.8c.32 1.3.83 2.47 1.54 3.5.7 1.05 1.62 1.88 2.75 2.5 1.13.63 2.5.95 4.12.95s3-.32 4.12-.94c1.12-.63 2.04-1.46 2.74-2.5.7-1.03 1.2-2.2 1.53-3.5.32-1.3.48-2.63.48-4 0-1.44-.16-2.83-.48-4.17-.32-1.34-.83-2.54-1.53-3.6-.7-1.05-1.62-1.9-2.75-2.5-1.14-.64-2.5-.95-4.13-.95-1.62 0-3 .32-4.12.95-1.13.62-2.04 1.46-2.74 2.5-.7 1.07-1.2 2.27-1.53 3.6-.32 1.35-.48 2.74-.48 4.17 0 1.38.15 2.7.47 4" clip-path="url(#aL)"/><defs><path id="aM" d="M0 0h329.64v332.48H0z"/></defs><clipPath id="aN"><use xlink:href="#aM" overflow="visible"/></clipPath><path fill="#00AEEF" d="M222.22 204.04v26.65h15.93v6.03h-23.1v-32.69z" clip-path="url(#aN)"/><defs><path id="aO" d="M0 0h329.64v332.48H0z"/></defs><clipPath id="aP"><use xlink:href="#aO" overflow="visible"/></clipPath><path fill="#00AEEF" d="M242.18 204.04h7.2v32.7h-7.2z" clip-path="url(#aP)"/></svg>